<svg width="120" height="120" viewBox="0 0 120 120" fill="none" xmlns="http://www.w3.org/2000/svg">
<g filter="url(#filter0_d_20_82)">
<rect x="4" y="3" width="110" height="110" rx="55" fill="white" shape-rendering="crispEdges"/>
<path d="M47.2699 51.6153C45.409 53.2949 43.9088 55.3335 42.8602 57.6079H32.6635C32.3549 57.6079 32.059 57.7302 31.8408 57.9478C31.6226 58.1655 31.5 58.4607 31.5 58.7685V84.3394C31.5 84.6472 31.6226 84.9424 31.8408 85.1601C32.059 85.3777 32.3549 85.5 32.6635 85.5H76.0824C77.0482 85.4875 77.9982 85.2537 78.859 84.8168C79.7197 84.3798 80.4684 83.7514 81.047 82.9799C81.6256 82.2085 82.0187 81.3147 82.196 80.3677C82.3733 79.4206 82.33 78.4455 82.0695 77.5178C82.8923 77.1604 83.6276 76.6296 84.2251 75.9617C84.8226 75.2939 85.268 74.5048 85.5307 73.6489C85.7934 72.793 85.8672 71.8905 85.7469 71.0035C85.6267 70.1164 85.3152 69.2658 84.8341 68.5103C85.3831 67.9403 85.8129 67.2671 86.0985 66.5298C86.3841 65.7925 86.5198 65.0059 86.4977 64.2158C86.4756 63.4257 86.2961 62.6478 85.9697 61.9276C85.6434 61.2073 85.1766 60.5591 84.5966 60.0205C87.7513 56.762 85.7262 49.8997 80.7703 49.9099H66.1029C68.4773 40.5031 64.9428 26.9005 53.7047 31.3806C53.4963 31.5043 53.3317 31.6897 53.2339 31.9111C53.136 32.1324 53.1097 32.3787 53.1586 32.6156C53.9408 35.7288 54.2022 38.9495 53.932 42.1476C52.3803 45.7228 50.1133 48.9445 47.2699 51.6153ZM42.677 83.1788H33.8236V59.9224H42.677V83.1788ZM55.6518 33.1401C60.4211 31.8374 63.6945 34.8827 64.3627 41.6502C64.6289 44.7075 64.3393 47.7877 63.5079 50.7423C63.4588 50.9151 63.4504 51.0969 63.4833 51.2735C63.5162 51.4501 63.5894 51.6168 63.6974 51.7605C63.8054 51.9042 63.9452 52.0212 64.1059 52.1022C64.2666 52.1833 64.4439 52.2262 64.6239 52.2278H80.7703C81.6152 52.3166 82.3958 52.7184 82.958 53.3537C83.5201 53.989 83.8228 54.8116 83.8063 55.6589C83.8063 58.0884 82.3816 59.0257 82.0051 59.0595C81.6965 59.0595 81.4006 59.1818 81.1824 59.3994C80.9642 59.6171 80.8416 59.9123 80.8416 60.2201C80.8416 60.5279 80.9642 60.8232 81.1824 61.0408C81.4006 61.2585 81.6965 61.3807 82.0051 61.3807C82.6797 61.4822 83.2877 61.8434 83.6986 62.3867C84.1095 62.9301 84.2906 63.6124 84.2032 64.2874C84.2017 64.9032 84.0517 65.5097 83.766 66.0556C83.4802 66.6015 83.0671 67.0709 82.5614 67.4241C82.4252 67.521 82.3116 67.6462 82.2285 67.7911C82.1453 67.9359 82.0946 68.097 82.0797 68.2633C82.195 69.522 83.6536 70.1209 83.5044 71.8433C83.485 72.7538 83.1532 73.6301 82.5643 74.326C81.9753 75.0219 81.1649 75.4952 80.2683 75.6669C80.0891 75.7045 79.9212 75.7835 79.7781 75.8975C79.635 76.0115 79.5205 76.1573 79.444 76.3233C79.0709 77.3384 80.1733 78.2216 80.0003 79.2672C79.9814 80.2982 79.564 81.2821 78.8352 82.0135C78.1065 82.7448 77.1227 83.1672 76.0892 83.1923H45.0006V58.7685C45.0006 57.4861 46.9307 55.3848 48.9795 53.1921C52.057 50.2775 54.4982 46.7606 56.1504 42.8616C56.5745 39.6177 56.4055 36.3239 55.6518 33.1401ZM38.2503 78.5329C38.5589 78.5329 38.8548 78.6552 39.073 78.8728C39.2912 79.0905 39.4138 79.3857 39.4138 79.6935C39.4138 80.0013 39.2912 80.2965 39.073 80.5142C38.8548 80.7319 38.5589 80.8541 38.2503 80.8541C37.9417 80.8541 37.6458 80.7319 37.4276 80.5142C37.2094 80.2965 37.0868 80.0013 37.0868 79.6935C37.0868 79.3857 37.2094 79.0905 37.4276 78.8728C37.6458 78.6552 37.9417 78.5329 38.2503 78.5329Z" fill="#FF6000"/>
</g>
<defs>
<filter id="filter0_d_20_82" x="0" y="0" width="120" height="120" filterUnits="userSpaceOnUse" color-interpolation-filters="sRGB">
<feFlood flood-opacity="0" result="BackgroundImageFix"/>
<feColorMatrix in="SourceAlpha" type="matrix" values="0 0 0 0 0 0 0 0 0 0 0 0 0 0 0 0 0 0 127 0" result="hardAlpha"/>
<feMorphology radius="2" operator="dilate" in="SourceAlpha" result="effect1_dropShadow_20_82"/>
<feOffset dx="1" dy="2"/>
<feGaussianBlur stdDeviation="1.5"/>
<feComposite in2="hardAlpha" operator="out"/>
<feColorMatrix type="matrix" values="0 0 0 0 0 0 0 0 0 0 0 0 0 0 0 0 0 0 0.07 0"/>
<feBlend mode="normal" in2="BackgroundImageFix" result="effect1_dropShadow_20_82"/>
<feBlend mode="normal" in="SourceGraphic" in2="effect1_dropShadow_20_82" result="shape"/>
</filter>
</defs>
</svg>
