<svg width="121" height="120" viewBox="0 0 121 120" fill="none" xmlns="http://www.w3.org/2000/svg">
<g filter="url(#filter0_d_20_89)">
<rect x="4.5" y="3" width="110" height="110" rx="55" fill="white" shape-rendering="crispEdges"/>
<path d="M59.5 85.5C54.061 85.5 48.7442 83.8872 44.2218 80.8654C39.6995 77.8437 36.1747 73.5488 34.0933 68.5238C32.0119 63.4988 31.4673 57.9695 32.5284 52.635C33.5895 47.3006 36.2086 42.4005 40.0546 38.5546C43.9005 34.7086 48.8006 32.0895 54.135 31.0284C59.4695 29.9673 64.9988 30.5119 70.0238 32.5933C75.0488 34.6747 79.3437 38.1995 82.3654 42.7218C85.3872 47.2442 87 52.561 87 58C86.9921 65.291 84.0922 72.2811 78.9367 77.4367C73.7811 82.5922 66.791 85.4921 59.5 85.5ZM59.5 32.2188C54.401 32.2188 49.4164 33.7308 45.1767 36.5637C40.937 39.3966 37.6326 43.423 35.6812 48.134C33.7299 52.8449 33.2194 58.0286 34.2141 63.0297C35.2089 68.0308 37.6643 72.6245 41.2699 76.2301C44.8755 79.8357 49.4693 82.2911 54.4703 83.2859C59.4714 84.2807 64.6552 83.7701 69.3661 81.8188C74.077 79.8675 78.1035 76.563 80.9363 72.3233C83.7692 68.0836 85.2813 63.0991 85.2813 58C85.2733 51.1648 82.5545 44.6119 77.7213 39.7787C72.8881 34.9455 66.3352 32.2267 59.5 32.2188Z" fill="#FF6000" stroke="#FF6000" stroke-width="0.5"/>
<path d="M60.5785 66.1641C60.3717 66.1639 60.1718 66.0892 60.0156 65.9535L59.2465 65.3047C59.1437 65.2378 59.0564 65.1497 58.9904 65.0463C58.9245 64.9429 58.8815 64.8265 58.8642 64.7051C58.847 64.5836 58.856 64.4599 58.8905 64.3422C58.9251 64.2245 58.9844 64.1156 59.0646 64.0227C59.1448 63.9299 59.2439 63.8553 59.3552 63.8039C59.4666 63.7526 59.5877 63.7256 59.7104 63.725C59.833 63.7243 59.9544 63.7499 60.0664 63.8C60.1783 63.8502 60.2782 63.9237 60.3594 64.0157L60.4711 64.1102L72.1629 50.1282C72.232 50.0324 72.32 49.9519 72.4215 49.8916C72.5231 49.8314 72.6359 49.7927 72.7531 49.778C72.8702 49.7634 72.9891 49.773 73.1024 49.8063C73.2157 49.8396 73.3209 49.8959 73.4114 49.9716C73.502 50.0474 73.576 50.141 73.6287 50.2466C73.6815 50.3522 73.712 50.4675 73.7182 50.5854C73.7244 50.7033 73.7063 50.8213 73.6649 50.9318C73.6235 51.0424 73.5598 51.1433 73.4778 51.2282L61.2403 65.8719C61.1667 65.9597 61.0764 66.0319 60.9746 66.0843C60.8727 66.1367 60.7615 66.1682 60.6473 66.177L60.5785 66.1641Z" fill="#FF6000" stroke="#FF6000" stroke-width="0.5"/>
<path d="M54.7476 66.1641C54.6342 66.1642 54.5219 66.1418 54.4172 66.0983C54.3125 66.0548 54.2174 65.991 54.1375 65.9106L45.5738 57.3641C45.4254 57.2009 45.3454 56.9869 45.3504 56.7663C45.3555 56.5458 45.4451 56.3356 45.6009 56.1793C45.7566 56.0231 45.9664 55.9327 46.1869 55.9268C46.4075 55.921 46.6218 56.0002 46.7855 56.1481L54.6875 64.05L66.3277 50.1282C66.4736 49.951 66.6839 49.8389 66.9123 49.8168C67.1408 49.7946 67.3687 49.8641 67.5459 50.01C67.7231 50.1559 67.8351 50.3662 67.8572 50.5946C67.8794 50.8231 67.8099 51.051 67.664 51.2282L55.405 65.8719C55.326 65.962 55.2289 66.0345 55.1201 66.0848C55.0113 66.1351 54.8932 66.1621 54.7734 66.1641H54.7476Z" fill="#FF6000" stroke="#FF6000" stroke-width="0.5"/>
</g>
<defs>
<filter id="filter0_d_20_89" x="0.5" y="0" width="120" height="120" filterUnits="userSpaceOnUse" color-interpolation-filters="sRGB">
<feFlood flood-opacity="0" result="BackgroundImageFix"/>
<feColorMatrix in="SourceAlpha" type="matrix" values="0 0 0 0 0 0 0 0 0 0 0 0 0 0 0 0 0 0 127 0" result="hardAlpha"/>
<feMorphology radius="2" operator="dilate" in="SourceAlpha" result="effect1_dropShadow_20_89"/>
<feOffset dx="1" dy="2"/>
<feGaussianBlur stdDeviation="1.5"/>
<feComposite in2="hardAlpha" operator="out"/>
<feColorMatrix type="matrix" values="0 0 0 0 0 0 0 0 0 0 0 0 0 0 0 0 0 0 0.07 0"/>
<feBlend mode="normal" in2="BackgroundImageFix" result="effect1_dropShadow_20_89"/>
<feBlend mode="normal" in="SourceGraphic" in2="effect1_dropShadow_20_89" result="shape"/>
</filter>
</defs>
</svg>
