<svg width="120" height="120" viewBox="0 0 120 120" fill="none" xmlns="http://www.w3.org/2000/svg">
<g filter="url(#filter0_d_20_81)">
<rect x="4" y="3" width="110" height="110" rx="55" fill="white" shape-rendering="crispEdges"/>
<path d="M82.6193 49.77C82.7063 45.3022 81.0146 40.9879 77.8563 37.8108C71.753 31.6725 61.9875 31.4088 55.5696 37.0199C49.1518 31.4076 39.3863 31.6725 33.283 37.8108C26.9057 44.226 26.9057 54.6632 33.283 61.0771L54.7274 82.6489C54.9597 82.8826 55.2647 83 55.5696 83C55.8746 83 56.1796 82.8826 56.4119 82.6489L63.3134 75.7064L70.215 82.6489C70.4473 82.8826 70.7523 83 71.0572 83C71.3622 83 71.6672 82.8826 71.8995 82.6489L86.1958 68.2677C90.6014 63.8359 90.6014 56.6238 86.1958 52.192C85.1379 51.1278 83.9191 50.3236 82.6193 49.77ZM55.5696 80.107L34.9676 59.3826C29.5195 53.9021 29.5195 44.9858 34.9676 39.5054C40.4156 34.0262 49.2793 34.0262 54.7274 39.5054C55.1932 39.974 55.9461 39.974 56.4119 39.5054C61.86 34.0262 70.7237 34.0262 76.1717 39.5054C78.7153 42.0653 80.1616 45.4856 80.2569 49.0665C77.0748 48.4793 73.6913 49.2582 71.0584 51.425C66.623 47.777 60.0551 48.0322 55.9199 52.192C51.5143 56.6238 51.5143 63.8359 55.9199 68.2677L61.6301 74.0118L55.5696 80.107ZM84.5112 66.5731L71.0572 80.107L57.6033 66.5731C54.1269 63.0761 54.1269 57.3848 57.6033 53.8866C59.3415 52.1381 61.6253 51.2632 63.9091 51.2632C66.1929 51.2632 68.4756 52.1381 70.215 53.8866C70.6808 54.3552 71.4337 54.3552 71.8995 53.8866C75.3771 50.3896 81.0336 50.3896 84.5112 53.8866C87.9876 57.3836 87.9876 63.0761 84.5112 66.5731Z" fill="#FF6000"/>
</g>
<defs>
<filter id="filter0_d_20_81" x="0" y="0" width="120" height="120" filterUnits="userSpaceOnUse" color-interpolation-filters="sRGB">
<feFlood flood-opacity="0" result="BackgroundImageFix"/>
<feColorMatrix in="SourceAlpha" type="matrix" values="0 0 0 0 0 0 0 0 0 0 0 0 0 0 0 0 0 0 127 0" result="hardAlpha"/>
<feMorphology radius="2" operator="dilate" in="SourceAlpha" result="effect1_dropShadow_20_81"/>
<feOffset dx="1" dy="2"/>
<feGaussianBlur stdDeviation="1.5"/>
<feComposite in2="hardAlpha" operator="out"/>
<feColorMatrix type="matrix" values="0 0 0 0 0 0 0 0 0 0 0 0 0 0 0 0 0 0 0.07 0"/>
<feBlend mode="normal" in2="BackgroundImageFix" result="effect1_dropShadow_20_81"/>
<feBlend mode="normal" in="SourceGraphic" in2="effect1_dropShadow_20_81" result="shape"/>
</filter>
</defs>
</svg>
