<svg width="120" height="120" viewBox="0 0 120 120" fill="none" xmlns="http://www.w3.org/2000/svg">
<g filter="url(#filter0_d_20_83)">
<rect x="4" y="3" width="110" height="110" rx="55" fill="white" shape-rendering="crispEdges"/>
<path fill-rule="evenodd" clip-rule="evenodd" d="M37.1538 51.7143V51.7551C32.8857 52.1951 29.5 56.2117 29.5 61.1429C29.5 66.074 32.8857 70.0906 37.1538 70.5306V70.5714C37.1538 71.8726 38.2032 72.9286 39.4963 72.9286H39.54C39.7836 75.0657 41.0158 77.0803 43.0319 78.7979C46.224 81.5164 51.4196 83.5106 57.4867 84.0716C57.5148 84.0747 57.543 84.0763 57.5711 84.0747C58.2879 84.9453 59.3701 85.5 60.5788 85.5C62.734 85.5 64.483 83.74 64.483 81.5714C64.483 79.4029 62.734 77.6429 60.5788 77.6429C59.4092 77.6429 58.3597 78.1614 57.6429 78.9817C53.2655 78.5181 49.5409 77.2799 47.2344 75.6C45.8304 74.577 44.9621 73.4141 44.9621 72.1429V53.2857C44.9621 52.2596 44.3109 51.3874 43.4036 51.0637C43.5504 43.128 50.4998 36.3269 59.0172 36.3269C67.5345 36.3269 74.484 43.128 74.6308 51.0637C73.7235 51.3874 73.0722 52.2596 73.0722 53.2857V70.5714C73.0722 71.8726 74.1217 72.9286 75.4147 72.9286H78.5381C79.8312 72.9286 80.8806 71.8726 80.8806 70.5714V70.5306C85.1299 70.089 88.5 66.0724 88.5 61.1429C88.5 56.2133 85.1299 52.1967 80.8806 51.7551V51.7143C80.8806 40.0134 71.1904 30.5 59.1156 30.5C47.0423 30.5 37.1538 40.015 37.1538 51.7143ZM60.5788 79.2143C61.8719 79.2143 62.9214 80.2703 62.9214 81.5714C62.9214 82.8726 61.8719 83.9286 60.5788 83.9286C59.2858 83.9286 58.2363 82.8726 58.2363 81.5714C58.2363 80.2703 59.2858 79.2143 60.5788 79.2143ZM41.1157 72.9286C41.3656 74.6336 42.4213 76.2176 44.0407 77.5973C46.8861 80.022 51.4399 81.7914 56.7652 82.4169C56.7059 82.145 56.6747 81.8621 56.6747 81.5714C56.6747 81.1896 56.7293 80.8203 56.8308 80.4699C52.4144 79.9167 48.6789 78.592 46.3192 76.8729C44.7247 75.7116 43.7393 74.3523 43.4738 72.9286H41.1157ZM38.7154 70.5714V52.5H42.6196C43.0506 52.5 43.4004 52.852 43.4004 53.2857V71.3571H39.4963C39.0652 71.3571 38.7154 71.0051 38.7154 70.5714ZM79.3189 52.5V70.5714C79.3189 71.0051 78.9691 71.3571 78.5381 71.3571H75.4147C74.9837 71.3571 74.6339 71.0051 74.6339 70.5714V53.2857C74.6339 52.852 74.9837 52.5 75.4147 52.5H79.3189ZM37.1538 53.336C33.7071 53.7791 31.0617 57.1279 31.0617 61.1429C31.0617 65.1579 33.7071 68.5066 37.1538 68.9497V53.336ZM80.8806 53.336V68.9497C84.3085 68.5034 86.9383 65.1547 86.9383 61.1429C86.9383 57.131 84.3085 53.7823 80.8806 53.336ZM79.3033 50.9286C78.8801 40.444 70.0395 32.0714 59.1156 32.0714C48.1901 32.0714 39.1636 40.4409 38.731 50.9286H41.8435C42.0668 42.226 49.6674 34.7554 59.0172 34.7554C68.3669 34.7554 75.9676 42.226 76.1909 50.9286H79.3033Z" fill="#FF6000" stroke="#FF6000" stroke-width="0.5"/>
</g>
<defs>
<filter id="filter0_d_20_83" x="0" y="0" width="120" height="120" filterUnits="userSpaceOnUse" color-interpolation-filters="sRGB">
<feFlood flood-opacity="0" result="BackgroundImageFix"/>
<feColorMatrix in="SourceAlpha" type="matrix" values="0 0 0 0 0 0 0 0 0 0 0 0 0 0 0 0 0 0 127 0" result="hardAlpha"/>
<feMorphology radius="2" operator="dilate" in="SourceAlpha" result="effect1_dropShadow_20_83"/>
<feOffset dx="1" dy="2"/>
<feGaussianBlur stdDeviation="1.5"/>
<feComposite in2="hardAlpha" operator="out"/>
<feColorMatrix type="matrix" values="0 0 0 0 0 0 0 0 0 0 0 0 0 0 0 0 0 0 0.07 0"/>
<feBlend mode="normal" in2="BackgroundImageFix" result="effect1_dropShadow_20_83"/>
<feBlend mode="normal" in="SourceGraphic" in2="effect1_dropShadow_20_83" result="shape"/>
</filter>
</defs>
</svg>
